<?xml version="1.0" encoding="UTF-8"?>
<svg xmlns="http://www.w3.org/2000/svg" xmlns:xlink="http://www.w3.org/1999/xlink" width="24px" height="24px" viewBox="0 0 24 24" version="1.1">
<g id="surface1">
<path style=" stroke:none;fill-rule:nonzero;fill:rgb(0%,0%,0%);fill-opacity:1;" d="M 7.339844 10.085938 L 12 5.425781 L 16.664062 10.085938 L 19.375 7.375 L 12 0 L 4.628906 7.371094 Z M 5.425781 12 L 2.710938 9.289062 L 0 12 L 2.710938 14.710938 Z M 12 18.574219 L 7.339844 13.914062 L 4.625 16.625 L 12 24 L 19.375 16.625 L 19.375 16.621094 L 16.664062 13.914062 Z M 21.289062 14.710938 L 24 12 L 21.289062 9.289062 L 18.574219 12 Z M 21.289062 14.710938 "/>
<path style=" stroke:none;fill-rule:nonzero;fill:rgb(0%,0%,0%);fill-opacity:1;" d="M 14.75 12 L 14.753906 12 L 14.75 12 L 12 14.753906 L 9.246094 12 L 12 9.246094 Z M 14.75 12 "/>
</g>
</svg>
