<svg width="68" height="68" viewBox="0 0 68 68" fill="none" xmlns="http://www.w3.org/2000/svg">
<rect width="68" height="68" rx="20" fill="#0328EE"/>
<path d="M58.794 36.2947L60.3994 37.6326L59.7572 38.1677C59.4362 38.4353 59.2132 38.5958 59.0883 38.6493C58.9813 38.685 58.7672 38.7028 58.4462 38.7028H51.3021C50.874 38.7028 50.4459 38.5245 50.0178 38.1677L49.3756 37.6326C48.9475 37.2758 48.7335 36.8299 48.7335 36.2947V27.7326C48.7335 27.1974 48.9475 26.7515 49.3756 26.3947L50.0178 25.8596C50.4459 25.5028 50.874 25.3245 51.3021 25.3245H57.5364C57.8932 25.3245 58.3213 25.5028 58.8208 25.8596L59.4897 26.3947C59.9178 26.7158 60.1318 27.1618 60.1318 27.7326V33.2177H50.981V35.7328C50.981 36.0004 50.9899 36.1788 51.0078 36.268C51.0435 36.3393 51.1416 36.4374 51.3021 36.5623C51.4626 36.6872 51.5875 36.7674 51.6767 36.8031C51.7659 36.8209 51.971 36.8299 52.2921 36.8299H57.4829C57.804 36.8299 58.0181 36.812 58.1251 36.7764C58.2499 36.7228 58.4729 36.5623 58.794 36.2947ZM57.8843 31.4785V28.2945C57.8843 28.0269 57.8664 27.8574 57.8308 27.7861C57.8129 27.6969 57.7237 27.5899 57.5632 27.465C57.4026 27.3401 57.2778 27.2688 57.1886 27.2509C57.0994 27.2153 56.8943 27.1974 56.5732 27.1974H52.2921C51.971 27.1974 51.7659 27.2153 51.6767 27.2509C51.5875 27.2688 51.4626 27.3401 51.3021 27.465C51.1416 27.5899 51.0435 27.6969 51.0078 27.7861C50.9899 27.8574 50.981 28.0269 50.981 28.2945V31.4785H57.8843Z" fill="white"/>
<path d="M44.1875 36.2947L45.7929 37.6326L45.1508 38.1677C44.8297 38.4353 44.6067 38.5958 44.4819 38.6493C44.3748 38.685 44.1608 38.7028 43.8397 38.7028H36.6956C36.2675 38.7028 35.8394 38.5245 35.4113 38.1677L34.7691 37.6326C34.341 37.2758 34.127 36.8299 34.127 36.2947V27.7326C34.127 27.1974 34.341 26.7515 34.7691 26.3947L35.4113 25.8596C35.8394 25.5028 36.2675 25.3245 36.6956 25.3245H42.93C43.2867 25.3245 43.7148 25.5028 44.2143 25.8596L44.8832 26.3947C45.3113 26.7158 45.5254 27.1618 45.5254 27.7326V33.2177H36.3746V35.7328C36.3746 36.0004 36.3835 36.1788 36.4013 36.268C36.437 36.3393 36.5351 36.4374 36.6956 36.5623C36.8562 36.6872 36.981 36.7674 37.0702 36.8031C37.1594 36.8209 37.3646 36.8299 37.6856 36.8299H42.8764C43.1975 36.8299 43.4116 36.812 43.5186 36.7764C43.6435 36.7228 43.8664 36.5623 44.1875 36.2947ZM43.2778 31.4785V28.2945C43.2778 28.0269 43.26 27.8574 43.2243 27.7861C43.2064 27.6969 43.1173 27.5899 42.9567 27.465C42.7962 27.3401 42.6713 27.2688 42.5821 27.2509C42.4929 27.2153 42.2878 27.1974 41.9667 27.1974H37.6856C37.3646 27.1974 37.1594 27.2153 37.0702 27.2509C36.981 27.2688 36.8562 27.3401 36.6956 27.465C36.5351 27.5899 36.437 27.6969 36.4013 27.7861C36.3835 27.8574 36.3746 28.0269 36.3746 28.2945V31.4785H43.2778Z" fill="white"/>
<path d="M22.9435 25.3245H23.88C24.201 25.3245 24.4151 25.3512 24.5221 25.4047C24.647 25.4404 24.8165 25.5474 25.0305 25.7258C25.3159 25.9577 25.4586 26.1807 25.4586 26.3947H25.5656C25.5656 26.1807 25.7619 25.9577 26.1543 25.7258C26.4754 25.5296 26.6894 25.4137 26.7965 25.378C26.9213 25.3423 27.1443 25.3245 27.4654 25.3245H29.927C30.3551 25.3245 30.7832 25.5028 31.2113 25.8596L31.8535 26.3947L30.2481 27.7326L29.927 27.465C29.7665 27.3401 29.6416 27.2688 29.5524 27.2509C29.4632 27.2153 29.2581 27.1974 28.937 27.1974H27.7865C27.4654 27.1974 27.2424 27.2153 27.1175 27.2509C27.0105 27.2866 26.7965 27.4026 26.4754 27.5988C26.1543 27.795 25.967 27.9377 25.9135 28.0269C25.86 28.1161 25.8332 28.2945 25.8332 28.562V38.7028H23.5856V28.2945C23.5856 28.0269 23.5678 27.8574 23.5321 27.7861C23.5143 27.6969 23.4251 27.5899 23.2646 27.465C23.104 27.3401 23.0059 27.242 22.9702 27.1707C22.9524 27.0815 22.9435 26.9031 22.9435 26.6355V25.3245Z" fill="white"/>
<path d="M10.9232 38.7029H8.67566L8.67566 19.9731H19.5924V21.8461H10.9232V28.2677H18.094V30.1407H10.9232V38.7029Z" fill="white"/>
</svg>
