<svg width="1646" height="610" viewBox="0 0 1646 610" fill="none" xmlns="http://www.w3.org/2000/svg">
<g clip-path="url(#clip0_6_2)">
<mask id="mask0_6_2" style="mask-type:luminance" maskUnits="userSpaceOnUse" x="0" y="0" width="610" height="610">
<path d="M610 0H0V610H610V0Z" fill="white"/>
</mask>
<g mask="url(#mask0_6_2)">
<g filter="url(#filter0_i_6_2)">
<path d="M78.515 148.17C97.0006 119.066 121.397 94.1718 150.121 75.102L156.288 71.0078C196.729 44.1598 243.438 28.2511 291.859 24.8331L297.1 24.4632C329.514 22.1751 362.068 26.044 393.043 35.8657C415.395 42.953 436.673 53.0607 456.288 65.9084L464.453 71.2558C490.03 88.0088 512.514 109.064 530.908 133.489C545.441 152.786 557.265 173.98 566.052 196.483L568.24 202.087C578.131 227.416 584.36 254.026 586.737 281.114L590.276 321.442C590.758 326.928 590.739 332.446 590.219 337.928C586.117 381.215 551.871 415.501 508.588 419.653L152.965 453.766C82.5255 460.523 24.218 399.794 33.8338 329.687V305.384C33.8338 274.25 38.9173 243.325 48.8838 213.83L53.1098 201.323C59.4188 182.652 67.9484 164.806 78.515 148.17Z" fill="white"/>
</g>
<path d="M193.5 182.5L404.5 180L458.5 320L544 453L466.5 527.5L376 579L176 559L72 474L152.5 336.5L193.5 182.5Z" fill="#C1E7FA"/>
<path d="M343 156H296V393H343V156Z" fill="#86C2E7"/>
<path d="M326 155H279V392H326V155Z" fill="#195378"/>
<path d="M429.557 368H478V555.5L429 557L429.557 368Z" fill="#86C2E7"/>
<path d="M193.507 339L197.243 362.466L85.443 457.533L69 440.094L193.507 339Z" fill="#86C2E7"/>
<path d="M188.508 327.818L192.244 351.285L80.444 446.351L64.001 428.912L188.508 327.818Z" fill="#195378"/>
<path d="M431.232 329.818L427.496 353.285L539.296 448.351L555.739 430.912L431.232 329.818Z" fill="#02385E"/>
<path d="M304.122 94.5L304.121 130L129 272L108.999 248L304.122 94.5Z" fill="#357397"/>
<path d="M187.336 293.845L192.03 325.496L63.879 429.153L44 404.899L187.336 293.845Z" fill="#357397"/>
<path d="M432.405 295.845L427.71 327.496L555.861 431.153L575.74 406.899L432.405 295.845Z" fill="#033D62"/>
<path d="M303.405 94.8452L303.406 130.345L478.5 272.5L498.527 248.345L303.405 94.8452Z" fill="url(#paint0_linear_6_2)"/>
<path d="M390.072 328V395.5L285.959 479L255.459 433L390.072 328Z" fill="#86C2E7"/>
<path d="M390 377H346V593H390V377Z" fill="#86C2E7"/>
<path d="M302 433H258V601H302V433Z" fill="#86C2E7"/>
<path d="M167.5 270L215 252V557H167L167.5 270Z" fill="#86C2E7"/>
<path d="M279.044 177.198L279.042 202.489L162.498 301.407L145.998 284.015L279.044 177.198Z" fill="#86C2E7"/>
<path d="M369.613 309L370 376.5L265.5 460L235 414L369.613 309Z" fill="#003658"/>
<path d="M146 288L194 247.744V545H146V288Z" fill="#003658"/>
<path d="M415.545 249L463 259.517V564H415L415.545 249Z" fill="#003658"/>
<path d="M370 358H326V588H370V358Z" fill="#003658"/>
<path d="M279 414H235V588H279V414Z" fill="#003658"/>
<path d="M303.903 130V156.5L146 289L129 272.013L303.903 130Z" fill="#003658"/>
<path d="M303.067 130V156.5L462.5 290L478.5 272.5L303.067 130Z" fill="#003658"/>
<path d="M305 589C461.849 589 589 461.849 589 305C589 148.151 461.849 21 305 21C148.151 21 21 148.151 21 305C21 461.849 148.151 589 305 589Z" stroke="url(#paint1_linear_6_2)" stroke-width="42"/>
</g>
</g>
<path d="M787.83 260.89L759.77 346.45C759.617 346.91 759.693 347.37 760 347.83C760.307 348.137 760.69 348.29 761.15 348.29H815.2C815.66 348.29 815.967 348.137 816.12 347.83C816.427 347.37 816.58 346.91 816.58 346.45L788.52 260.89C788.52 260.737 788.443 260.66 788.29 260.66C787.983 260.66 787.83 260.737 787.83 260.89ZM728.72 412C726.42 412 724.58 411.08 723.2 409.24C721.82 407.247 721.513 405.177 722.28 403.03L774.72 253.76C775.793 250.847 777.557 248.547 780.01 246.86C782.617 245.02 785.453 244.1 788.52 244.1C791.587 244.1 794.347 245.02 796.8 246.86C799.407 248.547 801.247 250.847 802.32 253.76L854.53 402.8C855.297 405.1 854.99 407.247 853.61 409.24C852.23 411.08 850.39 412 848.09 412C845.023 412 842.263 411.157 839.81 409.47C837.51 407.63 835.9 405.33 834.98 402.57L822.79 364.85C822.33 363.623 821.41 363.01 820.03 363.01H756.32C755.093 363.01 754.25 363.623 753.79 364.85L741.14 403.03C740.22 405.79 738.61 408.013 736.31 409.7C734.163 411.233 731.633 412 728.72 412ZM916.095 358.41C901.221 354.883 890.565 350.36 884.125 344.84C877.838 339.167 874.695 331.883 874.695 322.99C874.695 312.87 878.451 304.897 885.965 299.07C893.631 293.09 904.518 290.1 918.625 290.1C929.205 290.1 939.708 291.48 950.135 294.24C954.888 295.467 957.265 298.61 957.265 303.67C957.265 305.51 956.575 306.89 955.195 307.81C953.815 308.73 952.205 308.96 950.365 308.5C940.245 305.433 930.125 303.9 920.005 303.9C901.605 303.9 892.405 309.803 892.405 321.61C892.405 326.823 894.245 331.193 897.925 334.72C901.605 338.093 908.275 340.853 917.935 343C934.495 346.68 945.841 351.357 951.975 357.03C958.261 362.703 961.405 370.83 961.405 381.41C961.405 391.683 957.418 399.733 949.445 405.56C941.625 411.387 930.508 414.3 916.095 414.3C904.901 414.3 894.245 412.613 884.125 409.24C879.371 407.707 876.995 404.41 876.995 399.35C876.995 397.663 877.761 396.36 879.295 395.44C880.828 394.367 882.438 394.137 884.125 394.75C894.091 398.583 904.288 400.5 914.715 400.5C934.035 400.5 943.695 394.137 943.695 381.41C943.695 375.89 941.701 371.29 937.715 367.61C933.881 363.93 926.675 360.863 916.095 358.41ZM1028.17 358.41C1013.3 354.883 1002.64 350.36 996.205 344.84C989.918 339.167 986.775 331.883 986.775 322.99C986.775 312.87 990.531 304.897 998.045 299.07C1005.71 293.09 1016.6 290.1 1030.7 290.1C1041.28 290.1 1051.79 291.48 1062.21 294.24C1066.97 295.467 1069.34 298.61 1069.34 303.67C1069.34 305.51 1068.65 306.89 1067.27 307.81C1065.89 308.73 1064.28 308.96 1062.44 308.5C1052.32 305.433 1042.2 303.9 1032.08 303.9C1013.68 303.9 1004.48 309.803 1004.48 321.61C1004.48 326.823 1006.32 331.193 1010 334.72C1013.68 338.093 1020.35 340.853 1030.01 343C1046.57 346.68 1057.92 351.357 1064.05 357.03C1070.34 362.703 1073.48 370.83 1073.48 381.41C1073.48 391.683 1069.5 399.733 1061.52 405.56C1053.7 411.387 1042.59 414.3 1028.17 414.3C1016.98 414.3 1006.32 412.613 996.205 409.24C991.451 407.707 989.075 404.41 989.075 399.35C989.075 397.663 989.841 396.36 991.375 395.44C992.908 394.367 994.518 394.137 996.205 394.75C1006.17 398.583 1016.37 400.5 1026.79 400.5C1046.11 400.5 1055.77 394.137 1055.77 381.41C1055.77 375.89 1053.78 371.29 1049.79 367.61C1045.96 363.93 1038.75 360.863 1028.17 358.41ZM1149.4 303.44C1128.09 303.44 1116.43 316.09 1114.44 341.39C1114.44 342.617 1115.13 343.23 1116.51 343.23H1178.38C1179.61 343.23 1180.22 342.617 1180.22 341.39C1179.3 316.09 1169.03 303.44 1149.4 303.44ZM1154.23 414.3C1135.37 414.3 1121.03 409.163 1111.22 398.89C1101.41 388.463 1096.5 372.9 1096.5 352.2C1096.5 330.887 1101.18 315.247 1110.53 305.28C1120.04 295.16 1132.99 290.1 1149.4 290.1C1179.61 290.1 1195.63 307.963 1197.47 343.69C1197.62 347.37 1196.32 350.513 1193.56 353.12C1190.95 355.573 1187.81 356.8 1184.13 356.8H1116.05C1114.82 356.8 1114.21 357.49 1114.21 358.87C1115.59 386.93 1129.47 400.96 1155.84 400.96C1164.58 400.96 1173.55 399.35 1182.75 396.13C1184.44 395.517 1186.05 395.747 1187.58 396.82C1189.11 397.74 1189.88 399.12 1189.88 400.96C1189.88 406.173 1187.5 409.393 1182.75 410.62C1172.94 413.073 1163.43 414.3 1154.23 414.3ZM1224.07 310.8C1222.08 310.8 1220.39 310.187 1219.01 308.96C1217.78 307.58 1217.17 305.893 1217.17 303.9C1217.17 301.907 1217.78 300.297 1219.01 299.07C1220.39 297.69 1222.08 297 1224.07 297H1240.86C1242.24 297 1242.93 296.31 1242.93 294.93V262.04C1242.93 259.587 1243.77 257.517 1245.46 255.83C1247.15 254.143 1249.22 253.3 1251.67 253.3C1254.12 253.3 1256.19 254.143 1257.88 255.83C1259.57 257.517 1260.41 259.587 1260.41 262.04V294.93C1260.41 296.31 1261.1 297 1262.48 297H1296.98C1298.97 297 1300.58 297.69 1301.81 299.07C1303.19 300.297 1303.88 301.907 1303.88 303.9C1303.88 305.893 1303.19 307.58 1301.81 308.96C1300.58 310.187 1298.97 310.8 1296.98 310.8H1262.48C1261.1 310.8 1260.41 311.49 1260.41 312.87V373.59C1260.41 384.63 1261.87 391.913 1264.78 395.44C1267.69 398.813 1273.29 400.5 1281.57 400.5C1286.48 400.5 1290.54 400.117 1293.76 399.35C1295.45 399.043 1296.98 399.427 1298.36 400.5C1299.89 401.42 1300.66 402.723 1300.66 404.41C1300.66 406.557 1299.97 408.473 1298.59 410.16C1297.36 411.847 1295.75 412.843 1293.76 413.15C1289.77 413.917 1284.71 414.3 1278.58 414.3C1265.09 414.3 1255.73 411.54 1250.52 406.02C1245.46 400.347 1242.93 390.073 1242.93 375.2V312.87C1242.93 311.49 1242.24 310.8 1240.86 310.8H1224.07ZM1374.07 358.41C1359.2 354.883 1348.54 350.36 1342.1 344.84C1335.82 339.167 1332.67 331.883 1332.67 322.99C1332.67 312.87 1336.43 304.897 1343.94 299.07C1351.61 293.09 1362.5 290.1 1376.6 290.1C1387.18 290.1 1397.69 291.48 1408.11 294.24C1412.87 295.467 1415.24 298.61 1415.24 303.67C1415.24 305.51 1414.55 306.89 1413.17 307.81C1411.79 308.73 1410.18 308.96 1408.34 308.5C1398.22 305.433 1388.1 303.9 1377.98 303.9C1359.58 303.9 1350.38 309.803 1350.38 321.61C1350.38 326.823 1352.22 331.193 1355.9 334.72C1359.58 338.093 1366.25 340.853 1375.91 343C1392.47 346.68 1403.82 351.357 1409.95 357.03C1416.24 362.703 1419.38 370.83 1419.38 381.41C1419.38 391.683 1415.4 399.733 1407.42 405.56C1399.6 411.387 1388.49 414.3 1374.07 414.3C1362.88 414.3 1352.22 412.613 1342.1 409.24C1337.35 407.707 1334.97 404.41 1334.97 399.35C1334.97 397.663 1335.74 396.36 1337.27 395.44C1338.81 394.367 1340.42 394.137 1342.1 394.75C1352.07 398.583 1362.27 400.5 1372.69 400.5C1392.01 400.5 1401.67 394.137 1401.67 381.41C1401.67 375.89 1399.68 371.29 1395.69 367.61C1391.86 363.93 1384.65 360.863 1374.07 358.41ZM1468.39 409.24C1466.7 411.08 1464.56 412 1461.95 412C1459.34 412 1457.12 411.08 1455.28 409.24C1453.59 407.4 1452.75 405.253 1452.75 402.8V257.21C1452.75 253.683 1454.05 250.617 1456.66 248.01C1459.27 245.403 1462.33 244.1 1465.86 244.1H1540.84C1542.99 244.1 1544.83 244.867 1546.36 246.4C1547.89 247.933 1548.66 249.697 1548.66 251.69C1548.66 253.683 1547.89 255.523 1546.36 257.21C1544.83 258.743 1542.99 259.51 1540.84 259.51H1473.22C1471.84 259.51 1471.15 260.123 1471.15 261.35V314.71C1471.15 315.937 1471.84 316.55 1473.22 316.55H1536.7C1538.85 316.55 1540.61 317.317 1541.99 318.85C1543.37 320.23 1544.06 321.917 1544.06 323.91C1544.06 325.903 1543.37 327.667 1541.99 329.2C1540.61 330.58 1538.85 331.27 1536.7 331.27H1473.22C1471.84 331.27 1471.15 331.96 1471.15 333.34V402.8C1471.15 405.253 1470.23 407.4 1468.39 409.24ZM1606.91 409.24C1605.22 411.08 1603.08 412 1600.47 412C1597.86 412 1595.64 411.08 1593.8 409.24C1592.11 407.4 1591.27 405.253 1591.27 402.8V301.6C1591.27 299.147 1592.11 297 1593.8 295.16C1595.64 293.32 1597.86 292.4 1600.47 292.4C1603.08 292.4 1605.22 293.32 1606.91 295.16C1608.75 297 1609.67 299.147 1609.67 301.6V402.8C1609.67 405.253 1608.75 407.4 1606.91 409.24ZM1606.91 261.58C1605.22 263.267 1603.08 264.11 1600.47 264.11C1597.86 264.11 1595.64 263.267 1593.8 261.58C1592.11 259.74 1591.27 257.517 1591.27 254.91V248.7C1591.27 246.247 1592.11 244.1 1593.8 242.26C1595.64 240.42 1597.86 239.5 1600.47 239.5C1603.08 239.5 1605.22 240.42 1606.91 242.26C1608.75 244.1 1609.67 246.247 1609.67 248.7V254.91C1609.67 257.517 1608.75 259.74 1606.91 261.58Z" fill="white"/>
<defs>
<filter id="filter0_i_6_2" x="32.7921" y="23.8241" width="557.832" height="434.457" filterUnits="userSpaceOnUse" color-interpolation-filters="sRGB">
<feFlood flood-opacity="0" result="BackgroundImageFix"/>
<feBlend mode="normal" in="SourceGraphic" in2="BackgroundImageFix" result="shape"/>
<feColorMatrix in="SourceAlpha" type="matrix" values="0 0 0 0 0 0 0 0 0 0 0 0 0 0 0 0 0 0 127 0" result="hardAlpha"/>
<feOffset dy="4"/>
<feGaussianBlur stdDeviation="28.75"/>
<feComposite in2="hardAlpha" operator="arithmetic" k2="-1" k3="1"/>
<feColorMatrix type="matrix" values="0 0 0 0 0 0 0 0 0 0.61 0 0 0 0 1 0 0 0 1 0"/>
<feBlend mode="normal" in2="shape" result="effect1_innerShadow_6_2"/>
</filter>
<linearGradient id="paint0_linear_6_2" x1="487.5" y1="261" x2="304.5" y2="117" gradientUnits="userSpaceOnUse">
<stop stop-color="#226088"/>
<stop offset="1" stop-color="#094466"/>
</linearGradient>
<linearGradient id="paint1_linear_6_2" x1="104" y1="73.5" x2="473.5" y2="726" gradientUnits="userSpaceOnUse">
<stop stop-color="#317196"/>
<stop offset="1" stop-color="#003152"/>
</linearGradient>
<clipPath id="clip0_6_2">
<rect width="610" height="610" fill="white"/>
</clipPath>
</defs>
</svg>
